<mxfile host="drawio-plugin" modified="2022-03-18T00:33:31.601Z" agent="5.0 (X11; Linux x86_64) AppleWebKit/537.36 (KHTML, like Gecko) Chrome/89.0.4389.114 Safari/537.36" etag="ffDOB4ZqjAAyz10ktBvn" version="15.5.4" type="embed"><diagram id="is4OhbdvVFBw_4R9YW5E" name="Page-1"><mxGraphModel dx="1390" dy="797" grid="1" gridSize="10" guides="1" tooltips="1" connect="1" arrows="1" fold="1" page="1" pageScale="1" pageWidth="827" pageHeight="1169" math="0" shadow="0"><root><mxCell id="0"/><mxCell id="1" parent="0"/><mxCell id="4o6Xz2khOgLSLcstzvG9-5" value="Walkietalkie" style="shape=rect;html=1;verticalAlign=top;fontStyle=1;whiteSpace=wrap;align=center;" parent="1" vertex="1"><mxGeometry x="60" y="20" width="580" height="560" as="geometry"/></mxCell><mxCell id="4o6Xz2khOgLSLcstzvG9-6" value="listen for commander" style="ellipse;whiteSpace=wrap;html=1;" parent="1" vertex="1"><mxGeometry x="430" y="160" width="140" height="70" as="geometry"/></mxCell><mxCell id="4o6Xz2khOgLSLcstzvG9-8" value="check soldiers" style="ellipse;whiteSpace=wrap;html=1;" parent="1" vertex="1"><mxGeometry x="210" y="65" width="140" height="70" as="geometry"/></mxCell><mxCell id="4o6Xz2khOgLSLcstzvG9-35" style="edgeStyle=orthogonalEdgeStyle;rounded=0;orthogonalLoop=1;jettySize=auto;html=1;entryX=1;entryY=0.5;entryDx=0;entryDy=0;fontSize=12;" parent="1" source="4o6Xz2khOgLSLcstzvG9-4" target="4o6Xz2khOgLSLcstzvG9-6" edge="1"><mxGeometry relative="1" as="geometry"/></mxCell><mxCell id="4o6Xz2khOgLSLcstzvG9-4" value="&lt;div&gt;Soldier&lt;br&gt;&lt;/div&gt;" style="shape=umlActor;verticalLabelPosition=bottom;verticalAlign=top;html=1;outlineConnect=0;" parent="1" vertex="1"><mxGeometry x="660" y="70" width="30" height="60" as="geometry"/></mxCell><mxCell id="4o6Xz2khOgLSLcstzvG9-34" style="edgeStyle=orthogonalEdgeStyle;rounded=0;orthogonalLoop=1;jettySize=auto;html=1;fontSize=12;" parent="1" source="4o6Xz2khOgLSLcstzvG9-1" target="4o6Xz2khOgLSLcstzvG9-8" edge="1"><mxGeometry relative="1" as="geometry"/></mxCell><mxCell id="4o6Xz2khOgLSLcstzvG9-1" value="&lt;div&gt;Commander&lt;/div&gt;" style="shape=umlActor;verticalLabelPosition=bottom;verticalAlign=top;html=1;outlineConnect=0;" parent="1" vertex="1"><mxGeometry x="20" y="70" width="30" height="60" as="geometry"/></mxCell><mxCell id="4o6Xz2khOgLSLcstzvG9-12" value="authenticate commander" style="ellipse;whiteSpace=wrap;html=1;" parent="1" vertex="1"><mxGeometry x="210" y="160" width="140" height="70" as="geometry"/></mxCell><mxCell id="4o6Xz2khOgLSLcstzvG9-14" value="authenticated" style="ellipse;whiteSpace=wrap;html=1;" parent="1" vertex="1"><mxGeometry x="200" y="280" width="80" height="40" as="geometry"/></mxCell><mxCell id="4o6Xz2khOgLSLcstzvG9-16" value="&lt;font style=&quot;font-size: 10px&quot;&gt;no authenticated&lt;/font&gt;" style="ellipse;whiteSpace=wrap;html=1;" parent="1" vertex="1"><mxGeometry x="300" y="280" width="80" height="40" as="geometry"/></mxCell><mxCell id="4o6Xz2khOgLSLcstzvG9-19" value="&amp;lt;&amp;lt;extend&amp;gt;&amp;gt;" style="edgeStyle=none;html=1;startArrow=open;endArrow=none;startSize=12;verticalAlign=bottom;dashed=1;labelBackgroundColor=none;rounded=0;entryX=0.5;entryY=0;entryDx=0;entryDy=0;exitX=0.5;exitY=1;exitDx=0;exitDy=0;" parent="1" source="4o6Xz2khOgLSLcstzvG9-12" target="4o6Xz2khOgLSLcstzvG9-14" edge="1"><mxGeometry width="160" relative="1" as="geometry"><mxPoint x="270" y="355" as="sourcePoint"/><mxPoint x="430" y="355" as="targetPoint"/></mxGeometry></mxCell><mxCell id="4o6Xz2khOgLSLcstzvG9-20" value="&amp;lt;&amp;lt;extend&amp;gt;&amp;gt;" style="edgeStyle=none;html=1;startArrow=open;endArrow=none;startSize=12;verticalAlign=bottom;dashed=1;labelBackgroundColor=none;rounded=0;entryX=0.5;entryY=0;entryDx=0;entryDy=0;" parent="1" target="4o6Xz2khOgLSLcstzvG9-16" edge="1"><mxGeometry width="160" relative="1" as="geometry"><mxPoint x="280" y="230" as="sourcePoint"/><mxPoint x="464" y="375" as="targetPoint"/></mxGeometry></mxCell><mxCell id="4o6Xz2khOgLSLcstzvG9-21" value="&lt;font style=&quot;font-size: 12px&quot;&gt;execute commands&lt;/font&gt;" style="ellipse;whiteSpace=wrap;html=1;fontSize=10;" parent="1" vertex="1"><mxGeometry x="140" y="365" width="140" height="70" as="geometry"/></mxCell><mxCell id="4o6Xz2khOgLSLcstzvG9-36" style="edgeStyle=orthogonalEdgeStyle;rounded=0;orthogonalLoop=1;jettySize=auto;html=1;fontSize=12;" parent="1" source="4o6Xz2khOgLSLcstzvG9-23" target="4o6Xz2khOgLSLcstzvG9-1" edge="1"><mxGeometry relative="1" as="geometry"/></mxCell><mxCell id="4o6Xz2khOgLSLcstzvG9-23" value="&lt;font style=&quot;font-size: 12px&quot;&gt;send commands output&lt;br&gt;&lt;/font&gt;" style="ellipse;whiteSpace=wrap;html=1;fontSize=10;" parent="1" vertex="1"><mxGeometry x="90" y="480" width="140" height="70" as="geometry"/></mxCell><mxCell id="4o6Xz2khOgLSLcstzvG9-30" value="&amp;lt;&amp;lt;include&amp;gt;&amp;gt;" style="edgeStyle=none;html=1;endArrow=open;verticalAlign=bottom;dashed=1;labelBackgroundColor=none;rounded=0;fontSize=12;exitX=0;exitY=0.5;exitDx=0;exitDy=0;" parent="1" source="4o6Xz2khOgLSLcstzvG9-6" target="4o6Xz2khOgLSLcstzvG9-12" edge="1"><mxGeometry width="160" relative="1" as="geometry"><mxPoint x="462.4799999999998" y="205" as="sourcePoint"/><mxPoint x="364.9999999999998" y="270.17999999999995" as="targetPoint"/></mxGeometry></mxCell><mxCell id="4o6Xz2khOgLSLcstzvG9-31" value="&amp;lt;&amp;lt;include&amp;gt;&amp;gt;" style="edgeStyle=none;html=1;endArrow=open;verticalAlign=bottom;dashed=1;labelBackgroundColor=none;rounded=0;fontSize=12;entryX=0.5;entryY=0;entryDx=0;entryDy=0;exitX=0.5;exitY=1;exitDx=0;exitDy=0;" parent="1" source="4o6Xz2khOgLSLcstzvG9-14" target="4o6Xz2khOgLSLcstzvG9-21" edge="1"><mxGeometry width="160" relative="1" as="geometry"><mxPoint x="347.4799999999998" y="240" as="sourcePoint"/><mxPoint x="249.99999999999977" y="305.17999999999995" as="targetPoint"/></mxGeometry></mxCell><mxCell id="4o6Xz2khOgLSLcstzvG9-32" value="&amp;lt;&amp;lt;include&amp;gt;&amp;gt;" style="edgeStyle=none;html=1;endArrow=open;verticalAlign=bottom;dashed=1;labelBackgroundColor=none;rounded=0;fontSize=12;entryX=0.5;entryY=0;entryDx=0;entryDy=0;exitX=0.5;exitY=1;exitDx=0;exitDy=0;" parent="1" source="4o6Xz2khOgLSLcstzvG9-21" target="4o6Xz2khOgLSLcstzvG9-23" edge="1"><mxGeometry width="160" relative="1" as="geometry"><mxPoint x="289.9999999999998" y="440" as="sourcePoint"/><mxPoint x="269.9999999999977" y="440" as="targetPoint"/></mxGeometry></mxCell><mxCell id="4o6Xz2khOgLSLcstzvG9-40" style="edgeStyle=orthogonalEdgeStyle;rounded=0;orthogonalLoop=1;jettySize=auto;html=1;fontSize=12;" parent="1" source="4o6Xz2khOgLSLcstzvG9-38" target="4o6Xz2khOgLSLcstzvG9-4" edge="1"><mxGeometry relative="1" as="geometry"/></mxCell><mxCell id="4o6Xz2khOgLSLcstzvG9-38" value="send commands" style="ellipse;whiteSpace=wrap;html=1;" parent="1" vertex="1"><mxGeometry x="430" y="65" width="140" height="70" as="geometry"/></mxCell><mxCell id="4o6Xz2khOgLSLcstzvG9-39" value="&amp;lt;&amp;lt;include&amp;gt;&amp;gt;" style="edgeStyle=none;html=1;endArrow=open;verticalAlign=bottom;dashed=1;labelBackgroundColor=none;rounded=0;fontSize=12;exitX=1;exitY=0.5;exitDx=0;exitDy=0;entryX=0;entryY=0.5;entryDx=0;entryDy=0;" parent="1" source="4o6Xz2khOgLSLcstzvG9-8" target="4o6Xz2khOgLSLcstzvG9-38" edge="1"><mxGeometry width="160" relative="1" as="geometry"><mxPoint x="320" y="160" as="sourcePoint"/><mxPoint x="480" y="160" as="targetPoint"/></mxGeometry></mxCell><mxCell id="3" value="&lt;font style=&quot;font-size: 12px&quot;&gt;send authentication error&lt;br&gt;&lt;/font&gt;" style="ellipse;whiteSpace=wrap;html=1;fontSize=10;" parent="1" vertex="1"><mxGeometry x="300" y="365" width="140" height="70" as="geometry"/></mxCell><mxCell id="4" value="&amp;lt;&amp;lt;include&amp;gt;&amp;gt;" style="edgeStyle=none;html=1;endArrow=open;verticalAlign=bottom;dashed=1;labelBackgroundColor=none;rounded=0;fontSize=12;exitX=0.5;exitY=1;exitDx=0;exitDy=0;entryX=0.5;entryY=0;entryDx=0;entryDy=0;" parent="1" source="4o6Xz2khOgLSLcstzvG9-16" target="3" edge="1"><mxGeometry width="160" relative="1" as="geometry"><mxPoint x="440.0000000000001" y="205" as="sourcePoint"/><mxPoint x="359.9999999999999" y="205" as="targetPoint"/></mxGeometry></mxCell><mxCell id="5" value="&lt;font style=&quot;font-size: 12px&quot;&gt;disconnect from commander&lt;br&gt;&lt;/font&gt;" style="ellipse;whiteSpace=wrap;html=1;fontSize=10;" parent="1" vertex="1"><mxGeometry x="360" y="480" width="140" height="70" as="geometry"/></mxCell><mxCell id="6" value="&amp;lt;&amp;lt;include&amp;gt;&amp;gt;" style="edgeStyle=none;html=1;endArrow=open;verticalAlign=bottom;dashed=1;labelBackgroundColor=none;rounded=0;fontSize=12;exitX=0.5;exitY=1;exitDx=0;exitDy=0;entryX=0.5;entryY=0;entryDx=0;entryDy=0;" parent="1" source="3" target="5" edge="1"><mxGeometry width="160" relative="1" as="geometry"><mxPoint x="390" y="310" as="sourcePoint"/><mxPoint x="440.0000000000001" y="310" as="targetPoint"/></mxGeometry></mxCell><mxCell id="8" value="&amp;lt;&amp;lt;include&amp;gt;&amp;gt;" style="edgeStyle=none;html=1;endArrow=open;verticalAlign=bottom;dashed=1;labelBackgroundColor=none;rounded=0;fontSize=12;exitX=1;exitY=0.5;exitDx=0;exitDy=0;entryX=0;entryY=0.5;entryDx=0;entryDy=0;" edge="1" parent="1" source="4o6Xz2khOgLSLcstzvG9-23" target="5"><mxGeometry width="160" relative="1" as="geometry"><mxPoint x="330.0000000000016" y="510" as="sourcePoint"/><mxPoint x="410.0000000000007" y="510" as="targetPoint"/></mxGeometry></mxCell><mxCell id="9" value="&amp;lt;&amp;lt;include&amp;gt;&amp;gt;" style="edgeStyle=none;html=1;endArrow=open;verticalAlign=bottom;dashed=1;labelBackgroundColor=none;rounded=0;fontSize=12;exitX=1;exitY=0.5;exitDx=0;exitDy=0;entryX=0.5;entryY=1;entryDx=0;entryDy=0;" edge="1" parent="1" source="5" target="4o6Xz2khOgLSLcstzvG9-6"><mxGeometry width="160" relative="1" as="geometry"><mxPoint x="390.0000000000041" y="310" as="sourcePoint"/><mxPoint x="440.0000000000007" y="310" as="targetPoint"/></mxGeometry></mxCell></root></mxGraphModel></diagram></mxfile>